<svg xmlns:mydata="http://www.w3.org/2000/svg"
     version="1.1"
     xmlns="http://www.w3.org/2000/svg"
     xmlns:xlink="http://www.w3.org/1999/xlink"
     style="background-color: white"
     viewBox="0 0 550 470">
    <rect width="100%" height="100%" fill="white" />
    <g fill="#3d3935"
       stroke="none"
       stroke-width="1"
       stroke-linecap="butt"
       stroke-linejoin="miter"
       stroke-miterlimit="10"
       stroke-dasharray=""
       stroke-dashoffset="0"
       font-family="none"
       font-size="none"
       style="mix-blend-mode: normal">
        <g>
            <g>
                <path d="M229.64636,227.62068c5.81744,-10.07385 18.35095,-20.92563 45.35329,-20.92563c27.00234,0 39.53585,10.85178 45.35329,20.92563v-33.52376c0,-1.39155 1.12804,-2.51963 2.51963,-2.51963c1.39159,0 2.51963,1.12808 2.51963,2.51963v75.58882c0,0 0,25.19628 -50.39255,25.19628c-50.39255,0 -50.39255,-25.19628 -50.39255,-25.19628v-75.58882c0,-1.39155 1.12804,-2.51963 2.51963,-2.51963c1.39159,0 2.51963,1.12808 2.51963,2.51963zM229.64636,244.48945v25.19628c0,-0.01386 0.00138,-0.00126 0.00554,0.03615c0.0063,0.05657 0.01877,0.16957 0.04221,0.33385c0.08139,0.56982 0.23496,1.23512 0.48099,1.97337c0.74367,2.23075 2.10855,4.50572 4.29432,6.6915c6.82428,6.82428 19.71797,11.12213 40.53022,11.12213c20.81225,0 33.70594,-4.29785 40.53022,-11.12213c2.18578,-2.18578 3.55066,-4.46075 4.29432,-6.6915c0.24604,-0.73825 0.39962,-1.40356 0.48099,-1.97337c0.02343,-0.16428 0.0359,-0.27728 0.04221,-0.33385c0.00416,-0.03742 0.00554,-0.05001 0.00554,-0.03615v-25.19628c0,-0.14059 -0.01751,-0.53542 -0.07572,-1.14618c-0.10394,-1.09138 -0.29391,-2.32611 -0.59161,-3.66606c-0.85655,-3.8544 -2.39869,-7.70955 -4.7854,-11.28969c-6.90869,-10.36298 -19.48919,-16.65323 -39.90056,-16.65323c-20.41138,0 -32.99188,6.29025 -39.90056,16.65323c-2.38671,3.58014 -3.92885,7.4353 -4.7854,11.28969c-0.29769,1.33994 -0.48768,2.57468 -0.59161,3.66606c-0.05544,0.58203 -0.07572,1.14618 -0.07572,1.14618zM237.20525,257.08759c0,-10.43667 8.45096,-18.89721 18.90363,-18.89721h37.78156c10.4402,0 18.90363,8.45826 18.90363,18.89721c0,10.43667 -8.45096,18.89721 -18.90363,18.89721h-37.78156c-10.4402,0 -18.90363,-8.45826 -18.90363,-18.89721zM242.24451,257.08759c0,7.6545 6.20597,13.85795 13.86438,13.85795h37.78156c7.66508,0 13.86438,-6.19992 13.86438,-13.85795c0,-7.6545 -6.20597,-13.85795 -13.86438,-13.85795h-37.78156c-7.66508,0 -13.86438,6.19992 -13.86438,13.85795zM256.10245,264.64647c-4.17465,0 -7.55888,-3.38423 -7.55888,-7.55888c0,-4.17465 3.38423,-7.55888 7.55888,-7.55888c4.17465,0 7.55888,3.38423 7.55888,7.55888c0,4.17465 -3.38423,7.55888 -7.55888,7.55888zM293.89686,264.64647c-4.17465,0 -7.55888,-3.38423 -7.55888,-7.55888c0,-4.17465 3.38423,-7.55888 7.55888,-7.55888c4.17465,0 7.55888,3.38423 7.55888,7.55888c0,4.17465 -3.38423,7.55888 -7.55888,7.55888zM256.10245,259.60722c1.39159,0 2.51963,-1.12804 2.51963,-2.51963c0,-1.39159 -1.12804,-2.51963 -2.51963,-2.51963c-1.39159,0 -2.51963,1.12804 -2.51963,2.51963c0,1.39159 1.12804,2.51963 2.51963,2.51963zM293.89686,259.60722c1.39159,0 2.51963,-1.12804 2.51963,-2.51963c0,-1.39159 -1.12804,-2.51963 -2.51963,-2.51963c-1.39159,0 -2.51963,1.12804 -2.51963,2.51963c0,1.39159 1.12804,2.51963 2.51963,2.51963zM219.41373,179.4138c7.25235,-7.25236 15.58111,-12.86757 24.98629,-16.84561c9.73894,-4.11922 19.93879,-6.17883 30.59953,-6.17883c10.66081,0 20.8607,2.05961 30.59968,6.17883c9.4053,3.97807 17.73404,9.59328 24.98625,16.84561c7.2525,7.25237 12.86778,15.58113 16.84582,24.98627c4.11925,9.73894 6.17887,19.93882 6.17887,30.59963c0,10.66081 -2.05962,20.8607 -6.17887,30.59968c-3.97804,9.40499 -9.59332,17.73373 -16.84582,24.98625c-7.2522,7.2522 -15.58095,12.86732 -24.98625,16.84536c-9.73898,4.11925 -19.93887,6.17887 -30.59968,6.17887c-10.66075,0 -20.86059,-2.05962 -30.59953,-6.17887c-9.40517,-3.97804 -17.73394,-9.59316 -24.98629,-16.84536c-7.25235,-7.2525 -12.86755,-15.58126 -16.84559,-24.98625c-4.11922,-9.73898 -6.17883,-19.93887 -6.17883,-30.59968c0,-10.66081 2.05961,-20.86068 6.17883,-30.59963c3.97804,-9.40517 9.59324,-17.73393 16.84559,-24.98627zM223.68957,286.30981c6.69637,6.69627 14.38506,11.88025 23.06606,15.55194c8.98601,3.80092 18.40065,5.70138 28.24393,5.70138c9.84335,0 19.25801,-1.90046 28.24398,-5.70138c8.68115,-3.67168 16.36986,-8.85566 23.06614,-15.55194c6.69627,-6.69627 11.88041,-14.38499 15.5524,-23.06614c3.80061,-8.98597 5.70092,-18.40063 5.70092,-28.24398c0,-9.84331 -1.9003,-19.25799 -5.70092,-28.24402c-3.672,-8.681 -8.85613,-16.36968 -15.5524,-23.06604c-6.69627,-6.69634 -14.38499,-11.8804 -23.06614,-15.55218c-8.98597,-3.80077 -18.40063,-5.70115 -28.24398,-5.70115c-9.84328,0 -19.25793,1.90038 -28.24393,5.70115c-8.68103,3.67178 -16.36972,8.85583 -23.06606,15.55218c-6.69636,6.69636 -11.88041,14.38504 -15.55215,23.06604c-3.80077,8.98604 -5.70115,18.40071 -5.70115,28.24402c0,9.84335 1.90038,19.25801 5.70115,28.24398c3.67174,8.68115 8.85579,16.36986 15.55215,23.06614z" data-paper-data="{&quot;isPathIcon&quot;:true}"></path></g><g data-paper-data="{&quot;isPrimaryText&quot;:true}" fill-rule="nonzero">
                <path d="M220.3265,147.18217c1.90058,-2.77081 1.94419,-4.47908 0.9196,-6.02533c-1.2759,-1.92551 -4.11561,-3.48655 -9.9505,0.37982c-1.77964,1.17924 -3.8904,2.74583 -6.5059,4.311l0.4833,0.72936c1.69141,-0.86887 2.50582,-0.52686 3.06645,0.3192l9.24062,13.94538c0.4833,0.72936 0.12265,1.26222 -1.34626,2.40351l0.50263,0.75854l8.08132,-5.35492c4.93048,-3.26708 6.29996,-7.02947 4.19279,-10.20949c-1.72053,-2.59653 -5.02916,-3.09113 -8.68404,-1.25708zM210.11524,143.62032c0.50581,-0.37715 0.94342,-0.66713 2.02288,-1.3824c2.88827,-1.91385 5.07948,-1.01469 6.27806,0.79412c1.66254,2.509 0.99713,4.41937 -3.27466,8.17364zM224.04341,157.86032l-1.42955,0.94726c-1.60459,1.06325 -1.78878,0.97537 -2.27207,0.24601l-4.67831,-7.06021l3.23099,-2.98064c2.71322,-1.79786 5.68089,-0.86741 7.24677,1.49572c1.7592,2.65487 1.31557,5.09003 -2.09784,7.35186z" data-paper-data="{&quot;glyphName&quot;:&quot;B&quot;,&quot;glyphIndex&quot;:0,&quot;firstGlyphOfWord&quot;:true,&quot;word&quot;:1}"></path>
                <path d="M244.44362,125.54991c-5.59707,1.55731 -8.0263,7.31907 -6.3095,13.48934c1.73556,6.2377 6.97893,9.93732 12.576,8.38001c5.59707,-1.55731 8.01692,-7.35279 6.30012,-13.52306c-1.73556,-6.2377 -6.96955,-9.9036 -12.56662,-8.34629zM250.79957,146.30454c-3.67519,1.02257 -7.71588,-2.79371 -9.48896,-9.16628c-1.89504,-6.8109 0.26937,-9.73808 2.8656,-10.46045c3.84377,-1.06948 7.88446,2.7468 9.66693,9.15309c1.89504,6.8109 -0.27875,9.70436 -3.04357,10.47364z" ></path>
                <path d="M285.74502,121.71841c-0.84602,0.22315 -1.33855,0.31542 -2.98291,0.27283l-8.36175,-0.2166c-1.64436,-0.0426 -2.09646,-0.15934 -2.96478,-0.4269l-0.7697,-0.01994l-1.38276,4.72552l0.94463,0.02447c1.47286,-2.79765 1.83723,-3.34836 3.27167,-3.31121l2.86888,0.07432l-0.47942,18.5078c-0.02266,0.87466 -0.69374,1.10234 -2.51757,1.23015l-0.02356,0.90965c2.69667,-0.03518 5.60054,0.04005 8.29177,0.21479l0.02356,-0.90965c-1.81476,-0.22206 -2.47316,-0.48418 -2.4505,-1.35884l0.47942,-18.5078l3.18376,0.08247c1.43444,0.03716 1.6208,0.95224 1.34653,3.43084l0.94463,0.02447l1.34778,-4.72643z" ></path>
                <path d="M310.94762,144.75779l-1.74244,1.79867c-1.11011,1.19092 -2.32385,1.43156 -4.29289,0.80977l-3.90472,-1.23305c-0.16687,-0.05269 -0.26875,-0.19497 -0.21605,-0.36184l5.48022,-17.3543c0.26347,-0.83434 0.9608,-0.83434 2.79284,-0.47603l0.26347,-0.83434c-2.63476,-0.72191 -5.3714,-1.5861 -7.94293,-2.50825l-0.26347,0.83434c1.70557,0.7588 2.27644,1.15928 2.01296,1.99362l-5.20621,16.48658c-0.26347,0.83434 -0.88352,0.82205 -2.71555,0.46373l-0.30563,0.96784c4.93754,1.44909 9.44298,2.87184 14.41741,4.5528c0.67098,-1.6599 1.44383,-3.17752 2.59082,-4.83391z"></path>
                <path d="M339.42762,142.07481l-0.47795,0.73288c1.7895,1.29237 2.04952,2.0469 1.03626,2.63959l-8.45533,4.76443l0.85889,-10.0945c0.05989,-0.7966 0.69844,-1.00691 2.30949,-0.08161l0.47795,-0.73288c-2.38344,-1.4708 -4.67002,-2.96199 -6.977,-4.55005l-0.47795,0.73288c1.43772,1.06296 1.59068,1.78945 1.53078,2.58605l-0.88945,11.87123l-3.76622,5.77508c-0.47795,0.73288 -1.16876,0.57484 -2.78873,-0.27271l-0.49706,0.76219c2.31462,1.38413 4.74777,2.97091 6.977,4.55005l0.5353,-0.82082c-1.49635,-1.10119 -1.91951,-1.66964 -1.44156,-2.40251l3.84269,-5.89234l9.71968,-5.48585c1.01326,-0.59269 1.87614,-0.69849 3.80966,0.43711l0.47795,-0.73288c-1.97303,-1.20315 -3.90783,-2.46493 -5.80439,-3.78534z" ></path>
            </g>
            <g fill-rule="nonzero">
                <path d="M221.31242,321.32934c3.29247,0.67025 4.88263,0.04457 5.90722,-1.50168c1.2759,-1.92551 1.60661,-5.14909 -4.22828,-9.01546c-1.77964,-1.17924 -4.04505,-2.51243 -6.5059,-4.311l-0.4833,0.72936c1.45943,1.21897 1.4619,2.10228 0.90128,2.94833l-9.24062,13.94538c-0.4833,0.72936 -1.11458,0.60494 -2.73816,-0.30295l-0.50263,0.75854l8.08132,5.35492c4.93048,3.26708 8.92909,3.06175 11.03627,-0.11826c1.72053,-2.59653 0.88639,-5.83625 -2.2272,-8.48719zM220.61243,310.53737c0.54447,0.3188 0.98209,0.60878 2.06154,1.32405c2.88827,1.91385 2.91432,4.28223 1.71574,6.09105c-1.66254,2.509 -3.68118,2.64084 -8.80356,0.17025zM212.9276,328.91439l-1.42955,-0.94726c-1.60459,-1.06325 -1.59546,-1.26712 -1.11216,-1.99648l4.67831,-7.06021l4.00427,1.81366c2.71322,1.79786 3.01309,4.89348 1.44722,7.25661c-1.7592,2.65487 -4.17467,3.19551 -7.58808,0.93368z" data-paper-data="{&quot;glyphName&quot;:&quot;B&quot;,&quot;glyphIndex&quot;:0,&quot;firstGlyphOfWord&quot;:true,&quot;word&quot;:1}"></path>
                <path d="M250.41957,322.97157c-5.59707,-1.55731 -10.65309,2.12178 -12.36989,8.29204c-1.73556,6.2377 0.84349,12.11381 6.44056,13.67112c5.59707,1.55731 10.66247,-2.15549 12.37927,-8.32576c1.73556,-6.2377 -0.85287,-12.08009 -6.44995,-13.6374zM245.14258,344.02641c-3.67519,-1.02257 -5.16414,-6.3774 -3.39105,-12.74998c1.89504,-6.8109 5.26027,-8.19953 7.85651,-7.47716c3.84377,1.06948 5.33272,6.42431 3.55026,12.8306c-1.89504,6.8109 -5.25089,8.16581 -8.01571,7.39654z" ></path>
                <path d="M285.17859,326.4145c-0.83333,0.26666 -1.32042,0.3843 -2.96478,0.4269l-8.36175,0.2166c-1.64436,0.0426 -2.1019,-0.05058 -2.98291,-0.27283l-0.7697,0.01994l-1.13625,4.79077l0.94463,-0.02447c1.32605,-2.87015 1.66141,-3.43899 3.09585,-3.47615l2.86888,-0.07432l0.47942,18.5078c0.02266,0.87466 -0.63574,1.13678 -2.4505,1.35884l0.02356,0.90965c2.69123,-0.17474 5.5951,-0.24996 8.29177,-0.21479l-0.02356,-0.90965c-1.82382,-0.12781 -2.49491,-0.35549 -2.51757,-1.23015l-0.47942,-18.5078l3.18376,-0.08247c1.43444,-0.03716 1.66792,0.86705 1.52235,3.35652l0.94463,-0.02447l1.10127,-4.78987z"></path>
                <path d="M314.41491,336.22155l-0.39347,2.47316c-0.22484,1.61247 -1.08026,2.50653 -3.04931,3.12832l-3.90472,1.23305c-0.16687,0.05269 -0.33198,-0.00527 -0.38467,-0.17214l-5.48022,-17.3543c-0.26347,-0.83434 0.30739,-1.23482 2.01296,-1.99362l-0.26347,-0.83434c-2.57153,0.92215 -5.30817,1.78634 -7.94293,2.50825l0.26347,0.83434c1.83204,-0.35832 2.52937,-0.35832 2.79284,0.47603l5.20621,16.48658c0.26347,0.83434 -0.25119,1.18037 -1.95676,1.93917l0.30563,0.96784c4.87431,-1.64934 9.37975,-3.07208 14.41741,-4.5528c-0.40399,-1.74421 -0.64287,-3.43046 -0.65515,-5.44517z" ></path>
                <path d="M327.86131,310.18896l0.47795,0.73288c1.90421,-1.11648 2.69953,-1.05019 2.83334,0.11603l0.95066,9.6586l-8.89122,-4.8562c-0.70482,-0.37601 -0.63981,-1.04515 0.85654,-2.14634l-0.47795,-0.73288c-2.30697,1.58806 -4.59355,3.07925 -6.977,4.55005l0.47795,0.73288c1.55242,-0.88707 2.27892,-0.73411 2.98374,-0.3581l10.5048,5.60057l3.76622,5.77508c0.47795,0.73288 0.05478,1.30132 -1.37401,2.44203l0.49706,0.76219c2.19991,-1.56002 4.63306,-3.1468 6.977,-4.55005l-0.5353,-0.82082c-1.61105,0.9253 -2.30187,1.08334 -2.77981,0.35046l-3.84269,-5.89234l-1.10103,-11.1065c-0.13381,-1.16622 0.11729,-1.9985 1.93611,-3.30999l-0.47795,-0.73288c-1.89656,1.32041 -3.83136,2.58219 -5.80439,3.78534z" ></path>
            </g>
            <g fill-rule="evenodd">
                <path d="M183.78318,143.78313c-11.90225,11.90219 -21.11723,25.57006 -27.64496,41.00359c-6.75878,15.97976 -10.13817,32.71742 -10.13817,50.21298c0,17.49595 3.37939,34.23335 10.13817,50.2122c6.5276,15.43447 15.74259,29.10282 27.64496,41.00507c11.90308,11.90225 25.57091,21.117 41.0035,27.64427c15.98048,6.75917 32.71817,10.13876 50.21308,10.13876c17.49523,0 34.23293,-3.37959 50.21308,-10.13876c15.43447,-6.52858 29.10249,-15.74334 41.00409,-27.64427c11.90225,-11.90421 21.117,-25.57257 27.64427,-41.00507c6.75917,-15.9795 10.13876,-32.7169 10.13876,-50.2122c0,-17.49602 -3.37959,-34.23371 -10.13876,-50.21308c-6.52793,-15.43422 -15.74268,-29.10206 -27.64427,-41.0035c-11.9029,-11.90225 -25.57093,-21.11723 -41.00409,-27.64496c-15.97884,-6.75878 -32.71654,-10.13817 -50.21308,-10.13817c-17.49576,0 -34.23345,3.37939 -50.21308,10.13817c-15.43331,6.52773 -29.10115,15.74272 -41.0035,27.64496zM148.54486,234.99971c0,-17.15164 3.31237,-33.55888 9.93712,-49.22171c6.39881,-15.12875 15.43234,-28.52724 27.10059,-40.19548c11.66823,-11.66818 25.06669,-20.70171 40.19538,-27.10059c15.66296,-6.62475 32.07023,-9.93712 49.2218,-9.93712c17.15197,0 33.5595,3.31237 49.22259,9.93712c15.12789,6.39874 28.52602,15.43227 40.1944,27.10059c11.66838,11.66747 20.70168,25.066 27.0999,40.19558c6.62553,15.66244 9.9383,32.06964 9.9383,49.22161c0,17.15072 -3.31277,33.55796 -9.9383,49.22171c-6.39756,15.12723 -15.43086,28.52569 -27.0999,40.19538c-11.66707,11.66773 -25.0652,20.70103 -40.1944,27.0999c-15.66375,6.62553 -32.07128,9.9383 -49.22259,9.9383c-17.15092,0 -33.55819,-3.31277 -49.2218,-9.9383c-15.12754,-6.39756 -28.526,-15.43086 -40.19538,-27.0999c-11.66812,-11.66773 -20.70165,-25.06619 -27.10059,-40.19538c-6.62475,-15.66244 -9.93712,-32.06967 -9.93712,-49.22171z" data-paper-data="{&quot;isBaseLogoContainer&quot;:true}"></path>
            </g>
        </g>
    </g>
</svg>